<?xml version="1.0" encoding="UTF-8"?>
<svg id="Layer_1" data-name="Layer 1" xmlns="http://www.w3.org/2000/svg" xmlns:xlink="http://www.w3.org/1999/xlink" viewBox="0 0 415.81 391.1">
  <defs>
    <style>
      .cls-1 {
        fill: #fff;
      }

      .cls-2, .cls-3 {
        stroke: #000;
      }

      .cls-2, .cls-3, .cls-4, .cls-5, .cls-6, .cls-7, .cls-8 {
        fill: none;
      }

      .cls-2, .cls-3, .cls-4, .cls-7 {
        stroke-miterlimit: 10;
      }

      .cls-3, .cls-5, .cls-8 {
        stroke-linecap: round;
      }

      .cls-4 {
        stroke: #7a5ce0;
      }

      .cls-9 {
        fill: #ebe0ff;
      }

      .cls-10 {
        clip-path: url(#clippath-1);
      }

      .cls-5 {
        stroke: #1d1e1b;
      }

      .cls-5, .cls-8 {
        stroke-linejoin: round;
      }

      .cls-11 {
        clip-path: url(#clippath);
      }

      .cls-12 {
        fill: #7a5ce0;
      }

      .cls-13 {
        fill: #ff9c40;
      }

      .cls-7 {
        stroke: #c0a4fc;
      }

      .cls-14 {
        fill: #ccb5fc;
      }

      .cls-8 {
        stroke: #1c1c1b;
      }
    </style>
    <clipPath id="clippath">
      <path class="cls-6" d="m30.99,88.18C8.69,117.17-3.63,153.1.95,191.19c4.77,39.64,27.53,74.44,33.78,113.76,1.74,10.92,2.34,22.55,8.4,31.8,7.63,11.64,22.61,18.56,33.68,26.47,11.47,8.2,23.87,15,38,18.02,32.51,6.95,66.08,6.29,99.14,5.6,43.74-.91,99.18-4.43,135.26-31.9,23.63-17.99,32.01-42.49,38.15-70.37,7.59-34.47,12.62-69.5,14.99-104.71,1.33-19.76,1.81-39.88-2.97-59.1-9.26-37.24-37.99-67.71-72.14-85.22-34.15-17.51-73.27-23.25-111.64-23.29-42.9-.05-86.5,6.96-124.71,26.45-23.33,11.9-44.11,28.96-59.9,49.49Z"/>
    </clipPath>
    <clipPath id="clippath-1">
      <path class="cls-6" d="m30.99,88.18C8.69,117.17-3.63,153.1.95,191.19c4.77,39.64,27.53,74.44,33.78,113.76,1.74,10.92,2.34,22.55,8.4,31.8,7.63,11.64,22.61,18.56,33.68,26.47,11.47,8.2,23.87,15,38,18.02,32.51,6.95,66.08,6.29,99.14,5.6,43.74-.91,99.18-4.43,135.26-31.9,23.63-17.99,32.01-42.49,38.15-70.37,7.59-34.47,12.62-69.5,14.99-104.71,1.33-19.76,1.81-39.88-2.97-59.1-9.26-37.24-37.99-67.71-72.14-85.22-34.15-17.51-73.27-23.25-111.64-23.29-42.9-.05-86.5,6.96-124.71,26.45-23.33,11.9-44.11,28.96-59.9,49.49Z"/>
    </clipPath>
  </defs>
  <g id="OBJECTS">
    <path class="cls-9" d="m42.11,98.11c-1.59.72-3.16,1.51-4.69,2.37C5.57,118.28-3.06,157.87.95,191.19c4.77,39.64,27.53,74.44,33.78,113.76,1.74,10.92,2.34,22.55,8.4,31.8,7.63,11.64,22.61,18.56,33.68,26.47,11.47,8.2,23.87,15,38,18.02,32.51,6.95,66.08,6.29,99.14,5.6,43.74-.91,99.18-4.43,135.26-31.9,15.96-12.15,28.39-29.39,32.91-48.93,5.41-23.42-.51-47.28-.96-70.86-.46-23.94,9.74-41.64,16.83-63.85,4.6-14.41,6.78-30.46.9-44.4-5.61-13.29-17.95-20.78-26.14-31.98-10.09-13.79-20.77-24.72-34.81-35.01-24.54-17.99-52.58-34.06-83.01-34.04-34.75.02-65.49,20.71-96.74,35.91-24.91,12.11-51.35,21.05-78.5,26.52-12.72,2.57-25.85,4.47-37.58,9.79Z"/>
    <g>
      <path class="cls-14" d="m111.32,109.34c9.84-12.19,16.19-28.12,13.46-43.54-4.3-24.25-31.07-40.19-55.57-37.7-19.38,1.97-37.59,13.9-46.65,31.15-9.06,17.24-8.44,39.32,2.04,55.73,8.86,13.88,25.57,24.13,42.26,24.31,17.09.19,34.17-17.2,44.46-29.95Z"/>
      <path class="cls-14" d="m254.85,204c-16.66-10.08-30.96-23.99-42.03-39.97-16.71-24.13-26.25-52.79-30.03-81.9-2.01-15.46-2.37-31.65,3.42-46.13,6.93-17.34,22.87-30.8,41.13-34.72,24.88-5.35,42.06,6.75,59.01,22.59,6.37,5.95,11.89,12.82,18.68,18.28,14.3,11.49,32.92,15.8,49.34,23.99,50.58,25.24,87.15,96.94,38.68,142.01-19.53,18.16-47.97,25.39-74.33,21.33-19.42-2.99-42.74-13.63-59.9-23.17-1.34-.75-2.66-1.52-3.97-2.31Z"/>
    </g>
    <g>
      <g class="cls-11">
        <g>
          <g>
            <polygon class="cls-12" points="295.68 302.12 298.25 238.52 207.44 144.09 199.12 302.12 295.68 302.12"/>
            <path class="cls-12" d="m380.45,139.16c.28,11.03-.53,22.41-1.18,34.16-1.09,19.9-5.18,62.28-18.86,77.86-7.05,8.03-39.04,6.1-60.68.81-15.61-3.82-28.53-15.92-40.14-26.43-10.68-9.67-20.18-19.81-29.16-30.89-9.46-11.67-20.39-20.94-26.9-34.91-2.89-6.19-4.86-12.8-6.12-19.53-4.46-23.82.83-50.34,17.74-67.59,40.36-41.16,114.71-30.61,148.61,13.92,12.65,16.61,16.22,34.1,16.69,52.58Z"/>
            <path class="cls-12" d="m376.61,146.16l23.09,40.32c1.46,2.55-.3,5.75-3.22,5.86l-22.56.84,2.68-47.02Z"/>
            <path class="cls-12" d="m355.4,391.1h0c0-56.09-45.47-101.56-101.56-101.56h-49.61v101.56h151.17Z"/>
          </g>
          <line class="cls-2" x1="378.22" y1="193.18" x2="368.54" y2="193.18"/>
          <path class="cls-2" d="m302.49,252.12c-7.89-2.28-15.39-5.95-22.03-10.81"/>
          <path class="cls-1" d="m220.26,163.87c-4.63-2.77-8.48-6.6-10.83-12.03-4.39-10.15-3.69-22.05-2.68-32.79,2.68-28.61,21.5-52.03,49.09-59.58,17.72-4.85,36.61-5.88,54.55-1.89,17.94,3.99,34.86,13.12,47.26,26.68,3.53,3.87,6.74,8.14,8.59,13.04,5.9,15.62-1.5,36.74-12.81,48.21-11.84,12.01-29.65,17.56-46.34,15.19-5.97-.85-12.01-2.64-17.93-1.47-7.09,1.39-12.72,6.81-16.88,12.72s-7.3,12.52-11.86,18.12c-.7.86-1.49,1.73-2.54,2.12-2.76,1.01-5.49-1.91-6.1-4.78s-.06-5.93-.95-8.73c-1.74-5.46-8.1-7.79-13.72-8.89-5.91-1.16-11.83-2.9-16.83-5.9Z"/>
          <path class="cls-3" d="m371.43,152.3s-3.88,9.61-17.64,9.18c-13.59-.43-17.64-9.18-17.64-9.18"/>
          <g>
            <g>
              <path class="cls-5" d="m362.49,109.27c4.67-6.22-.41-15.45-6.12-20.01-.64-.51-6.85-3.46-6.85-3.45-1.06-7.95-8.83-14.42-16.85-14.01-5.44-9.05-17.8-13.21-27.6-9.28-9.04-6.99-23.2-6.18-31.38,1.79-7.57-3.58-17.64-.4-21.78,6.87-4.98-1.38-10.49.35-14.42,3.71-3.93,3.36-6.4,8.16-7.8,13.13-7.2,2.07-11.98,10.35-10.17,17.62-5.62,2.81-8.57,10.04-6.53,15.98-4.28,4.39-5.29,11.62-2.39,17.01.61,1.13,1.37,2.19,1.69,3.43.29,1.13.18,2.31.23,3.47.23,5.29,4.05,10.23,9.11,11.77,5.06,1.54,10.99-.42,14.13-4.68,6.3,1.63,12.08,3.93,18.59,3.94,6.51.02,13.2-1.54,18.4-5.46,5.83,4.91,15.15,5.02,21.11.26,4.97,4.49,11.73,6.95,18.42,6.71,6.7-.24,13.25-3.18,17.89-8.02,3.77-3.94,6.27-10,3.77-14.85,7.19,1,14.56-.81,20.66-4.67,4.92-3.12,11.58-6.99,8.87-14.12-.72-1.9-2.3-3.37-4.06-4.38,1.31-.82,2.32-1.75,3.07-2.75Z"/>
              <path class="cls-5" d="m234.36,104.5c-1.08.62-1.9,1.6-2.6,2.64-3,4.47-3.99,10.23-2.68,15.45"/>
              <path class="cls-5" d="m225.51,132.58c2.75,3.47,7.36,5.37,11.76,4.83-3.75,1.43-6.81,4.57-8.15,8.35"/>
              <path class="cls-5" d="m249.81,87.04c-7.54-.15-14.87,5.1-17.16,12.29"/>
              <path class="cls-5" d="m228.43,118.74c-1.82.37-3.51,1.37-4.71,2.79-1.2,1.42-1.9,3.25-1.95,5.11"/>
              <path class="cls-5" d="m273.04,100.96c-2.49-4.12-7.88-6.17-12.54-4.93s-8.27,5.56-8.86,10.34"/>
              <path class="cls-5" d="m335,137.58c-2.16-7.26-6.81-13.94-13.42-17.65-6.6-3.71-15.2-4.1-21.68-.17-3.56-5.29-9.42-8.97-15.74-9.88-6.31-.9-12.98.98-17.88,5.06"/>
              <path class="cls-5" d="m321.31,132.53c-3.39,2.6-7.89,3.7-12.1,2.96s-8.07-3.3-10.38-6.89c-1.67,2.4-4.81,3.25-7.72,3.63-2.09.27-4.24.38-6.29-.09-2.06-.47-4.03-1.58-5.19-3.34-4.35,3.32-10.11,4.72-15.5,3.78-5.39-.94-10.33-4.21-13.3-8.81-1.8-2.78-2.87-5.95-3.92-9.09"/>
              <path class="cls-5" d="m259.9,142.65c8.11,1.33,16.71-.69,23.38-5.49"/>
              <path class="cls-5" d="m315.82,135.3c2.37,3.3,2.66,7.6,1.11,11.36"/>
              <path class="cls-5" d="m277.86,140.23c.62.44,1.16.99,1.75,1.48,1.71,1.41,3.86,2.22,6.04,2.64,2.18.41,4.41.44,6.63.43"/>
              <path class="cls-5" d="m247.01,108.22c1.36,5.66-.73,12-5.18,15.75"/>
              <path class="cls-5" d="m248.06,93.71c3.08.6,6.37,1.51,8.32,3.97"/>
              <path class="cls-5" d="m267.99,96.69c-.35.05-.67.23-.97.42-3.51,2.19-5.75,6.29-5.68,10.42"/>
              <path class="cls-5" d="m330.99,88.24c-3.15,2.43-5.39,6.02-6.2,9.92-.7,3.37-.35,6.86.17,10.26-.02-.21-.03-.42-.04-.63"/>
              <path class="cls-5" d="m303.55,85.27c1.39,2.54,2.67,5.19,3.29,8.02s.54,5.89-.71,8.51"/>
              <path class="cls-5" d="m326.26,94.12c-.69-2.77-2.17-5.34-4.23-7.33"/>
              <path class="cls-5" d="m324.4,101.87c-2.32.77-4.42,2.19-5.99,4.07"/>
              <path class="cls-5" d="m307.02,92.41c.97-2.39,2.86-4.4,5.18-5.54"/>
              <path class="cls-5" d="m281.08,67.05c-.03,4.25,1.49,8.49,4.22,11.75,2.72,3.26,6.63,5.51,10.81,6.24"/>
              <path class="cls-5" d="m260.69,77.31c5.1-2.04,11.26.05,14.86,4.2s4.87,9.94,4.44,15.41"/>
              <path class="cls-5" d="m290.41,83.25c1.54,1.57,2.52,3.68,2.75,5.86s-.3,4.45-1.48,6.3"/>
              <path class="cls-5" d="m271.31,78.07c.29-3.02-1.01-6.14-3.36-8.06"/>
              <path class="cls-5" d="m345.65,105.82c3.29,2,5.28,5.9,5.15,9.74-.13,3.85-2.32,7.53-5.55,9.63"/>
              <path class="cls-5" d="m342.89,97.28c.75-5.27-1.27-10.86-5.22-14.43s-9.71-5.01-14.88-3.74"/>
              <path class="cls-5" d="m327.88,78.48c-2.8-3.98-7.34-6.69-12.17-7.28-4.83-.59-9.89.96-13.56,4.14"/>
              <path class="cls-5" d="m350.54,111.27c3.56-1.23,6.32-4.53,6.9-8.25"/>
              <path class="cls-5" d="m349.89,119.77c.27.46.75.74,1.14,1.11,1.01.95,1.32,2.41,1.58,3.77"/>
              <path class="cls-5" d="m324.36,121.98c1.43-4.14,4.05-7.86,7.47-10.6"/>
              <path class="cls-5" d="m330.4,127.52c2.55-1.18,4.95-2.68,7.12-4.47"/>
              <path class="cls-5" d="m309.92,116.95c-.2-1.41-.19-2.84.02-4.24"/>
            </g>
            <path class="cls-5" d="m231.17,156.34c-.35,2.64.85,5.34,2.75,7.21,1.9,1.87,4.42,3.01,6.99,3.7,7.96,2.14,16.79.19,23.49-4.62,1.4-1.01,2.75-2.17,3.55-3.69.8-1.52.97-3.48.05-4.93"/>
            <path class="cls-5" d="m283.74,155.03c-10.35,5.9-18.44,15.68-22.29,26.96-.63,1.85-1.48,4.05-3.4,4.43-1.53.3-3.05-.85-3.67-2.27-.62-1.43-.54-3.05-.35-4.6.55-4.47,2.59-9.39,4.65-13.39"/>
            <path class="cls-5" d="m236.59,158.89c.93,1.13,2.12,2.04,3.46,2.64,3.23,1.43,6.93.96,10.45,1.32"/>
          </g>
        </g>
      </g>
      <g class="cls-10">
        <g>
          <g>
            <polygon points="206.01 302.12 206.01 150.78 205.65 144.09 114.84 238.52 117.42 302.12 206.01 302.12"/>
            <path d="m206.01,82.9c-2.31-3.67-4.99-7.11-8.05-10.24-40.36-41.16-114.71-30.61-148.61,13.92-12.65,16.61-16.22,34.1-16.69,52.58-.28,11.03.53,22.41,1.18,34.17,1.09,19.9,7.51,58.96,15.17,78.23,1.15,2.9,42.73,5.74,64.37.45,15.61-3.82,28.53-15.92,40.14-26.43,10.68-9.67,20.18-19.81,29.16-30.89,7.9-9.75,16.81-17.83,23.33-28.37v-83.41h0Z"/>
            <path d="m36.49,146.16l-23.09,40.32c-1.46,2.55.3,5.75,3.22,5.86l22.56.84-2.68-47.02Z"/>
            <path d="m206.01,391.1v-102.4h-49.43c-56.09,0-101.56,45.47-101.56,101.56h0c0,.28,0,.56.01.84h150.98Z"/>
          </g>
          <g>
            <g>
              <polyline class="cls-4" points="107.86 59.21 132.67 59.21 140.34 66.74"/>
              <polyline class="cls-4" points="140.6 59.04 147.66 65.97 167.3 65.97"/>
              <polyline class="cls-4" points="101.48 63.27 119.06 63.27 128.62 72.66"/>
              <polyline class="cls-4" points="126.64 75.11 131.81 80.18 145.08 80.18 148.87 76.46"/>
              <polyline class="cls-4" points="126.29 62.93 135.43 71.9 153.17 71.9"/>
              <line class="cls-4" x1="175.23" y1="65.3" x2="167.82" y2="72.57"/>
              <polyline class="cls-4" points="161.96 70.03 147.23 84.5 129.22 84.24 112.85 68.51 95.28 68.51"/>
              <line class="cls-4" x1="103.89" y1="71.39" x2="113.2" y2="80.52"/>
              <polyline class="cls-4" points="81.32 69.02 90.45 69.02 106.48 84.75"/>
              <polyline class="cls-4" points="76.32 72.74 88.56 72.74 95.45 79.51"/>
              <polyline class="cls-4" points="71.84 77.31 83.21 77.31 89.76 83.74 99.41 83.74"/>
              <polyline class="cls-4" points="120.26 81.88 114.23 87.8 94.76 87.8 80.8 101.5"/>
              <line class="cls-4" x1="75.63" y1="82.04" x2="83.99" y2="90.25"/>
              <line class="cls-4" x1="68.91" y1="83.4" x2="79.68" y2="93.97"/>
              <polyline class="cls-4" points="67.71 89.83 75.55 97.52 75.55 115.88 84.81 124.97"/>
              <path class="cls-12" d="m69.95,89.91c0,1.35-1.12,2.45-2.5,2.45s-2.5-1.1-2.5-2.45,1.12-2.45,2.5-2.45c1.38,0,2.5,1.1,2.5,2.45Z"/>
              <path class="cls-12" d="m64.86,105.39c0,1.35-1.12,2.45-2.5,2.45s-2.5-1.1-2.5-2.45,1.12-2.45,2.5-2.45,2.5,1.1,2.5,2.45Z"/>
              <path class="cls-12" d="m74.77,77.73c0,1.35-1.12,2.45-2.5,2.45s-2.5-1.1-2.5-2.45,1.12-2.45,2.5-2.45c1.38,0,2.5,1.1,2.5,2.45Z"/>
              <path class="cls-12" d="m78.56,82.13c0,1.35-1.12,2.45-2.5,2.45s-2.5-1.1-2.5-2.45,1.12-2.45,2.5-2.45,2.5,1.1,2.5,2.45Z"/>
              <path class="cls-12" d="m82.96,94.56c0,1.35-1.12,2.45-2.5,2.45s-2.5-1.1-2.5-2.45,1.12-2.45,2.5-2.45,2.5,1.1,2.5,2.45Z"/>
              <path class="cls-12" d="m69.77,126.19c0,1.35-1.12,2.45-2.5,2.45s-2.5-1.1-2.5-2.45,1.12-2.45,2.5-2.45,2.5,1.1,2.5,2.45Z"/>
              <path class="cls-12" d="m72.27,83.4c0,1.35-1.12,2.45-2.5,2.45s-2.5-1.1-2.5-2.45,1.12-2.45,2.5-2.45c1.38,0,2.5,1.1,2.5,2.45Z"/>
              <path class="cls-12" d="m86.49,90.25c0,1.35-1.12,2.45-2.5,2.45s-2.5-1.1-2.5-2.45,1.12-2.45,2.5-2.45,2.5,1.1,2.5,2.45Z"/>
              <path class="cls-12" d="m63.14,97.78c0,1.35-1.12,2.45-2.5,2.45s-2.5-1.1-2.5-2.45,1.12-2.45,2.5-2.45,2.5,1.1,2.5,2.45Z"/>
              <path class="cls-12" d="m59.69,111.14c0,1.35-1.12,2.45-2.5,2.45s-2.5-1.1-2.5-2.45,1.12-2.45,2.5-2.45,2.5,1.1,2.5,2.45Z"/>
              <path class="cls-12" d="m109.15,83.74c0,1.35-1.12,2.45-2.5,2.45s-2.5-1.1-2.5-2.45,1.12-2.45,2.5-2.45,2.5,1.1,2.5,2.45Z"/>
              <path class="cls-12" d="m104.67,63.27c0,1.36-1.12,2.45-2.5,2.45s-2.5-1.1-2.5-2.45,1.12-2.45,2.5-2.45,2.5,1.1,2.5,2.45Z"/>
              <path class="cls-12" d="m143.09,58.87c0,1.36-1.12,2.45-2.5,2.45s-2.5-1.1-2.5-2.45,1.12-2.45,2.5-2.45,2.5,1.1,2.5,2.45Z"/>
              <path class="cls-12" d="m129.14,63.44c0,1.36-1.12,2.45-2.5,2.45s-2.5-1.1-2.5-2.45,1.12-2.45,2.5-2.45,2.5,1.1,2.5,2.45Z"/>
              <path class="cls-12" d="m142.71,66.66c0,1.36-1.12,2.45-2.5,2.45s-2.5-1.1-2.5-2.45,1.12-2.45,2.5-2.45,2.5,1.1,2.5,2.45Z"/>
              <path class="cls-12" d="m150.5,76.63c0,1.35-1.12,2.45-2.5,2.45s-2.5-1.1-2.5-2.45,1.12-2.45,2.5-2.45,2.5,1.1,2.5,2.45Z"/>
              <path class="cls-12" d="m123.62,88.47c0,1.35-1.12,2.45-2.5,2.45s-2.5-1.1-2.5-2.45,1.12-2.45,2.5-2.45,2.5,1.1,2.5,2.45Z"/>
              <ellipse class="cls-12" cx="112.51" cy="104.37" rx="2.5" ry="2.45"/>
              <path class="cls-12" d="m90.88,108.26c0,1.35-1.12,2.45-2.5,2.45s-2.5-1.1-2.5-2.45,1.12-2.45,2.5-2.45,2.5,1.1,2.5,2.45Z"/>
              <path class="cls-12" d="m122.76,81.88c0,1.35-1.12,2.45-2.5,2.45s-2.5-1.1-2.5-2.45,1.12-2.45,2.5-2.45,2.5,1.1,2.5,2.45Z"/>
              <path class="cls-12" d="m107.6,105.05c0,1.35-1.12,2.45-2.5,2.45s-2.5-1.1-2.5-2.45,1.12-2.45,2.5-2.45c1.38,0,2.5,1.1,2.5,2.45Z"/>
              <path class="cls-12" d="m155.67,71.9c0,1.35-1.12,2.45-2.5,2.45s-2.5-1.1-2.5-2.45,1.12-2.45,2.5-2.45c1.38,0,2.5,1.1,2.5,2.45Z"/>
              <path class="cls-12" d="m177.39,65.47c0,1.36-1.12,2.45-2.5,2.45s-2.5-1.1-2.5-2.45,1.12-2.45,2.5-2.45,2.5,1.1,2.5,2.45Z"/>
              <path class="cls-12" d="m188.76,78.15c0,1.35-1.12,2.45-2.5,2.45s-2.5-1.1-2.5-2.45,1.12-2.45,2.5-2.45c1.38,0,2.5,1.1,2.5,2.45Z"/>
              <path class="cls-12" d="m182.9,71.05c0,1.35-1.12,2.45-2.5,2.45s-2.5-1.1-2.5-2.45,1.12-2.45,2.5-2.45,2.5,1.1,2.5,2.45Z"/>
              <path class="cls-12" d="m169.8,65.97c0,1.36-1.12,2.45-2.5,2.45s-2.5-1.1-2.5-2.45,1.12-2.45,2.5-2.45c1.38,0,2.5,1.1,2.5,2.45Z"/>
              <ellipse class="cls-12" cx="161.96" cy="70.03" rx="2.5" ry="2.45"/>
              <path class="cls-12" d="m170.32,72.57c0,1.35-1.12,2.45-2.5,2.45s-2.5-1.1-2.5-2.45,1.12-2.45,2.5-2.45c1.38,0,2.5,1.1,2.5,2.45Z"/>
              <path class="cls-12" d="m172.04,88.13c0,1.35-1.12,2.45-2.5,2.45s-2.5-1.1-2.5-2.45,1.12-2.45,2.5-2.45c1.38,0,2.5,1.1,2.5,2.45Z"/>
              <path class="cls-12" d="m130.17,74.26c0,1.35-1.12,2.45-2.5,2.45s-2.5-1.1-2.5-2.45,1.12-2.45,2.5-2.45,2.5,1.1,2.5,2.45Z"/>
              <path class="cls-12" d="m116.9,111.14c0,1.35-1.12,2.45-2.5,2.45s-2.5-1.1-2.5-2.45,1.12-2.45,2.5-2.45,2.5,1.1,2.5,2.45Z"/>
              <path class="cls-12" d="m83.47,101.33c0,1.35-1.12,2.45-2.5,2.45s-2.5-1.1-2.5-2.45,1.12-2.45,2.5-2.45,2.5,1.1,2.5,2.45Z"/>
              <path class="cls-12" d="m115.7,80.52c0,1.35-1.12,2.45-2.5,2.45s-2.5-1.1-2.5-2.45,1.12-2.45,2.5-2.45c1.38,0,2.5,1.1,2.5,2.45Z"/>
              <path class="cls-12" d="m106.91,71.9c0,1.35-1.12,2.45-2.5,2.45s-2.5-1.1-2.5-2.45,1.12-2.45,2.5-2.45,2.5,1.1,2.5,2.45Z"/>
              <path class="cls-12" d="m101.91,83.74c0,1.35-1.12,2.45-2.5,2.45s-2.5-1.1-2.5-2.45,1.12-2.45,2.5-2.45,2.5,1.1,2.5,2.45Z"/>
              <path class="cls-12" d="m79.16,72.74c0,1.35-1.12,2.45-2.5,2.45s-2.5-1.1-2.5-2.45,1.12-2.45,2.5-2.45c1.38,0,2.5,1.1,2.5,2.45Z"/>
              <path class="cls-12" d="m83.82,69.02c0,1.36-1.12,2.45-2.5,2.45s-2.5-1.1-2.5-2.45,1.12-2.45,2.5-2.45,2.5,1.1,2.5,2.45Z"/>
              <path class="cls-12" d="m98.64,68.34c0,1.36-1.12,2.45-2.5,2.45s-2.5-1.1-2.5-2.45,1.12-2.45,2.5-2.45c1.38,0,2.5,1.1,2.5,2.45Z"/>
              <ellipse class="cls-12" cx="107.51" cy="59.21" rx="2.5" ry="2.45"/>
              <path class="cls-12" d="m87.52,124.76c0,1.35-1.12,2.45-2.5,2.45s-2.5-1.1-2.5-2.45,1.12-2.45,2.5-2.45,2.5,1.1,2.5,2.45Z"/>
              <path class="cls-12" d="m82.87,111.22c0,1.35-1.12,2.45-2.5,2.45s-2.5-1.1-2.5-2.45,1.12-2.45,2.5-2.45,2.5,1.1,2.5,2.45Z"/>
              <path class="cls-12" d="m87.52,116.81c0,1.35-1.12,2.45-2.5,2.45s-2.5-1.1-2.5-2.45,1.12-2.45,2.5-2.45,2.5,1.1,2.5,2.45Z"/>
              <path class="cls-12" d="m92.52,120.36c0,1.35-1.12,2.45-2.5,2.45s-2.5-1.1-2.5-2.45,1.12-2.45,2.5-2.45c1.38,0,2.5,1.1,2.5,2.45Z"/>
              <path class="cls-12" d="m103.46,124.84c0,1.35-1.12,2.45-2.5,2.45s-2.5-1.1-2.5-2.45,1.12-2.45,2.5-2.45c1.38,0,2.5,1.1,2.5,2.45Z"/>
              <path class="cls-12" d="m148.61,124c0,1.35-1.12,2.45-2.5,2.45s-2.5-1.1-2.5-2.45,1.12-2.45,2.5-2.45,2.5,1.1,2.5,2.45Z"/>
              <ellipse class="cls-12" cx="157.31" cy="90.33" rx="2.5" ry="2.45"/>
              <path class="cls-12" d="m165.67,76.97c0,1.35-1.12,2.45-2.5,2.45s-2.5-1.1-2.5-2.45,1.12-2.45,2.5-2.45c1.38,0,2.5,1.1,2.5,2.45Z"/>
              <path class="cls-12" d="m142.75,130.09c0,1.35-1.12,2.45-2.5,2.45s-2.5-1.1-2.5-2.45,1.12-2.45,2.5-2.45,2.5,1.1,2.5,2.45Z"/>
              <path class="cls-12" d="m144.82,163.92c0,1.35-1.12,2.45-2.5,2.45s-2.5-1.1-2.5-2.45,1.12-2.45,2.5-2.45,2.5,1.1,2.5,2.45Z"/>
              <path class="cls-12" d="m154.12,203.5c0,1.35-1.12,2.45-2.5,2.45s-2.5-1.1-2.5-2.45,1.12-2.45,2.5-2.45c1.38,0,2.5,1.1,2.5,2.45Z"/>
              <path class="cls-12" d="m166.27,178.51c0,1.35-1.12,2.45-2.5,2.45s-2.5-1.1-2.5-2.45,1.12-2.45,2.5-2.45,2.5,1.1,2.5,2.45Z"/>
              <path class="cls-12" d="m198.92,154.44c0,1.35-1.12,2.45-2.5,2.45s-2.5-1.1-2.5-2.45,1.12-2.45,2.5-2.45,2.5,1.1,2.5,2.45Z"/>
              <path class="cls-12" d="m198.75,146.15c0,1.35-1.12,2.45-2.5,2.45s-2.5-1.1-2.5-2.45,1.12-2.45,2.5-2.45c1.38,0,2.5,1.1,2.5,2.45Z"/>
              <path class="cls-12" d="m190.06,146.18c0,1.35-1.12,2.45-2.5,2.45s-2.5-1.1-2.5-2.45,1.12-2.45,2.5-2.45,2.5,1.1,2.5,2.45Z"/>
              <path class="cls-12" d="m179.24,136.39c0,1.35-1.12,2.45-2.5,2.45s-2.5-1.1-2.5-2.45,1.12-2.45,2.5-2.45,2.5,1.1,2.5,2.45Z"/>
              <path class="cls-12" d="m199.1,138.71c0,1.35-1.12,2.45-2.5,2.45s-2.5-1.1-2.5-2.45,1.12-2.45,2.5-2.45,2.5,1.1,2.5,2.45Z"/>
              <ellipse class="cls-12" cx="192.46" cy="91.52" rx="2.5" ry="2.45"/>
              <path class="cls-12" d="m166.53,93.04c0,1.35-1.12,2.45-2.5,2.45s-2.5-1.1-2.5-2.45,1.12-2.45,2.5-2.45,2.5,1.1,2.5,2.45Z"/>
              <path class="cls-12" d="m194.27,83.74c0,1.35-1.12,2.45-2.5,2.45s-2.5-1.1-2.5-2.45,1.12-2.45,2.5-2.45,2.5,1.1,2.5,2.45Z"/>
              <path class="cls-12" d="m158.6,122.98c0,1.35-1.12,2.45-2.5,2.45s-2.5-1.1-2.5-2.45,1.12-2.45,2.5-2.45,2.5,1.1,2.5,2.45Z"/>
              <path class="cls-12" d="m181.69,161.55c0,1.35-1.12,2.45-2.5,2.45s-2.5-1.1-2.5-2.45,1.12-2.45,2.5-2.45c1.38,0,2.5,1.1,2.5,2.45Z"/>
              <path class="cls-12" d="m169.34,162.61c0,1.35-1.12,2.45-2.5,2.45s-2.5-1.1-2.5-2.45,1.12-2.45,2.5-2.45,2.5,1.1,2.5,2.45Z"/>
              <path class="cls-12" d="m189.96,155.46c0,1.35-1.12,2.45-2.5,2.45s-2.5-1.1-2.5-2.45,1.12-2.45,2.5-2.45,2.5,1.1,2.5,2.45Z"/>
              <path class="cls-12" d="m203.58,128.39c0,1.35-1.12,2.45-2.5,2.45s-2.5-1.1-2.5-2.45,1.12-2.45,2.5-2.45,2.5,1.1,2.5,2.45Z"/>
              <path class="cls-12" d="m199.44,132.33c0,1.35-1.12,2.45-2.5,2.45s-2.5-1.1-2.5-2.45,1.12-2.45,2.5-2.45c1.38,0,2.5,1.1,2.5,2.45Z"/>
              <path class="cls-12" d="m181.69,121.12c0,1.35-1.12,2.45-2.5,2.45s-2.5-1.1-2.5-2.45,1.12-2.45,2.5-2.45c1.38,0,2.5,1.1,2.5,2.45Z"/>
              <ellipse class="cls-12" cx="198.49" cy="104.37" rx="2.5" ry="2.45"/>
              <path class="cls-12" d="m187.72,97.78c0,1.35-1.12,2.45-2.5,2.45s-2.5-1.1-2.5-2.45,1.12-2.45,2.5-2.45,2.5,1.1,2.5,2.45Z"/>
              <path class="cls-12" d="m182.73,111.65c0,1.35-1.12,2.45-2.5,2.45s-2.5-1.1-2.5-2.45,1.12-2.45,2.5-2.45c1.38,0,2.5,1.1,2.5,2.45Z"/>
              <path class="cls-12" d="m173.25,111.65c0,1.35-1.12,2.45-2.5,2.45s-2.5-1.1-2.5-2.45,1.12-2.45,2.5-2.45,2.5,1.1,2.5,2.45Z"/>
              <path class="cls-12" d="m175.49,97.78c0,1.35-1.12,2.45-2.5,2.45s-2.5-1.1-2.5-2.45,1.12-2.45,2.5-2.45,2.5,1.1,2.5,2.45Z"/>
              <path class="cls-12" d="m154.47,108.09c0,1.35-1.12,2.45-2.5,2.45s-2.5-1.1-2.5-2.45,1.12-2.45,2.5-2.45,2.5,1.1,2.5,2.45Z"/>
              <path class="cls-12" d="m161.97,108.87c0,1.35-1.12,2.45-2.5,2.45s-2.5-1.1-2.5-2.45,1.12-2.45,2.5-2.45c1.38,0,2.5,1.1,2.5,2.45Z"/>
              <path class="cls-12" d="m168.22,117.4c0,1.35-1.12,2.45-2.5,2.45s-2.5-1.1-2.5-2.45,1.12-2.45,2.5-2.45,2.5,1.1,2.5,2.45Z"/>
              <ellipse class="cls-12" cx="185.05" cy="120.91" rx="2.5" ry="2.45"/>
              <path class="cls-12" d="m192.85,125.86c0,1.35-1.12,2.45-2.5,2.45s-2.5-1.1-2.5-2.45,1.12-2.45,2.5-2.45c1.38,0,2.5,1.1,2.5,2.45Z"/>
              <path class="cls-12" d="m156.71,147.34c0,1.35-1.12,2.45-2.5,2.45s-2.5-1.1-2.5-2.45,1.12-2.45,2.5-2.45c1.38,0,2.5,1.1,2.5,2.45Z"/>
              <path class="cls-12" d="m164.94,151.81c0,1.35-1.12,2.45-2.5,2.45s-2.5-1.1-2.5-2.45,1.12-2.45,2.5-2.45,2.5,1.1,2.5,2.45Z"/>
              <path class="cls-12" d="m163.1,156.8c0,1.35-1.12,2.45-2.5,2.45s-2.5-1.1-2.5-2.45,1.12-2.45,2.5-2.45c1.38,0,2.5,1.1,2.5,2.45Z"/>
              <ellipse class="cls-12" cx="161.96" cy="137.53" rx="2.5" ry="2.45"/>
              <path class="cls-12" d="m181,174.23c0,1.35-1.12,2.45-2.5,2.45s-2.5-1.1-2.5-2.45,1.12-2.45,2.5-2.45c1.38,0,2.5,1.1,2.5,2.45Z"/>
              <path class="cls-12" d="m99.51,58.55c0,1.36-1.12,2.45-2.5,2.45s-2.5-1.1-2.5-2.45,1.12-2.45,2.5-2.45c1.38,0,2.5,1.1,2.5,2.45Z"/>
              <ellipse class="cls-12" cx="176.97" cy="86.75" rx="2.5" ry="2.45"/>
              <path class="cls-12" d="m161.75,198.85c0,1.36-1.12,2.45-2.5,2.45s-2.5-1.1-2.5-2.45,1.12-2.45,2.5-2.45,2.5,1.1,2.5,2.45Z"/>
              <path class="cls-12" d="m153.09,154.78c0,1.35-1.12,2.45-2.5,2.45s-2.5-1.1-2.5-2.45,1.12-2.45,2.5-2.45c1.38,0,2.5,1.1,2.5,2.45Z"/>
              <ellipse class="cls-12" cx="154.38" cy="137.53" rx="2.5" ry="2.45"/>
              <path class="cls-12" d="m166.18,127.55c0,1.35-1.12,2.45-2.5,2.45s-2.5-1.1-2.5-2.45,1.12-2.45,2.5-2.45,2.5,1.1,2.5,2.45Z"/>
              <ellipse class="cls-12" cx="150.76" cy="142.43" rx="2.5" ry="2.45"/>
              <path class="cls-12" d="m174.46,127.72c0,1.35-1.12,2.45-2.5,2.45s-2.5-1.1-2.5-2.45,1.12-2.45,2.5-2.45c1.38,0,2.5,1.1,2.5,2.45Z"/>
              <path class="cls-12" d="m137.06,167.13c0,1.35-1.12,2.45-2.5,2.45s-2.5-1.1-2.5-2.45,1.12-2.45,2.5-2.45,2.5,1.1,2.5,2.45Z"/>
              <path class="cls-12" d="m105.18,130.42c0,1.35-1.12,2.45-2.5,2.45s-2.5-1.1-2.5-2.45,1.12-2.45,2.5-2.45c1.38,0,2.5,1.1,2.5,2.45Z"/>
              <ellipse class="cls-12" cx="74" cy="130.85" rx="2.5" ry="2.45"/>
              <ellipse class="cls-12" cx="66.76" cy="134.06" rx="2.5" ry="2.45"/>
              <path class="cls-12" d="m73.39,99.38c0,1.35-1.12,2.45-2.5,2.45s-2.5-1.1-2.5-2.45,1.12-2.45,2.5-2.45,2.5,1.1,2.5,2.45Z"/>
              <path class="cls-12" d="m80.11,124.76c0,1.35-1.12,2.45-2.5,2.45s-2.5-1.1-2.5-2.45,1.12-2.45,2.5-2.45,2.5,1.1,2.5,2.45Z"/>
              <path class="cls-12" d="m97.52,94.99c0,1.35-1.12,2.45-2.5,2.45s-2.5-1.1-2.5-2.45,1.12-2.45,2.5-2.45,2.5,1.1,2.5,2.45Z"/>
              <ellipse class="cls-12" cx="135" cy="100.06" rx="2.5" ry="2.45"/>
              <path class="cls-12" d="m157.83,114.95c0,1.35-1.12,2.45-2.5,2.45s-2.5-1.1-2.5-2.45,1.12-2.45,2.5-2.45,2.5,1.1,2.5,2.45Z"/>
              <path class="cls-12" d="m149.04,129.49c0,1.35-1.12,2.45-2.5,2.45s-2.5-1.1-2.5-2.45,1.12-2.45,2.5-2.45,2.5,1.1,2.5,2.45Z"/>
              <ellipse class="cls-12" cx="135.77" cy="123.83" rx="2.5" ry="2.45"/>
              <path class="cls-12" d="m146.97,108.01c0,1.35-1.12,2.45-2.5,2.45s-2.5-1.1-2.5-2.45,1.12-2.45,2.5-2.45,2.5,1.1,2.5,2.45Z"/>
              <path class="cls-12" d="m129.39,115.45c0,1.35-1.12,2.45-2.5,2.45s-2.5-1.1-2.5-2.45,1.12-2.45,2.5-2.45c1.38,0,2.5,1.1,2.5,2.45Z"/>
              <path class="cls-12" d="m140.25,105.13c0,1.35-1.12,2.45-2.5,2.45s-2.5-1.1-2.5-2.45,1.12-2.45,2.5-2.45c1.38,0,2.5,1.1,2.5,2.45Z"/>
              <path class="cls-12" d="m123.19,104.97c0,1.35-1.12,2.45-2.5,2.45s-2.5-1.1-2.5-2.45,1.12-2.45,2.5-2.45,2.5,1.1,2.5,2.45Z"/>
              <path class="cls-12" d="m150.76,113.25c0,1.35-1.12,2.45-2.5,2.45s-2.5-1.1-2.5-2.45,1.12-2.45,2.5-2.45,2.5,1.1,2.5,2.45Z"/>
              <path class="cls-12" d="m100.27,115.45c0,1.35-1.12,2.45-2.5,2.45s-2.5-1.1-2.5-2.45,1.12-2.45,2.5-2.45c1.38,0,2.5,1.1,2.5,2.45Z"/>
              <path class="cls-12" d="m64.78,123.07c0,1.35-1.12,2.45-2.5,2.45s-2.5-1.1-2.5-2.45,1.12-2.45,2.5-2.45c1.38,0,2.5,1.1,2.5,2.45Z"/>
              <polyline class="cls-4" points="60.64 97.78 67.1 104.12 67.1 126.19"/>
              <line class="cls-4" x1="62.36" y1="105.39" x2="62.36" y2="122.64"/>
              <polyline class="cls-4" points="57.19 110.63 57.19 124.67 67.02 134.31"/>
              <polyline class="cls-4" points="71.15 98.96 71.15 118.41 77.61 124.76"/>
              <path class="cls-4" d="m80.28,110.97c.35-.51,10.51-10.32,10.51-10.32h44.46"/>
              <polyline class="cls-4" points="94.93 94.9 137.67 94.9 151.54 108.52"/>
              <polyline class="cls-4" points="120.78 88.64 148.35 88.64 159.64 99.72 159.63 108.57"/>
              <polyline class="cls-4" points="163 76.63 157.22 82.3 157.22 90.84"/>
              <polyline class="cls-4" points="180.06 71.39 169.54 81.71 169.54 88.98"/>
              <line class="cls-4" x1="186.26" y1="78.15" x2="177.39" y2="86.87"/>
              <polyline class="cls-4" points="191.95 83.4 182.3 93.72 163.34 93.21"/>
              <polyline class="cls-4" points="172.82 97.44 165.15 104.97 165.15 117.73"/>
              <line class="cls-4" x1="170.58" y1="112.15" x2="185.48" y2="97.52"/>
              <polyline class="cls-4" points="192.46 91.52 192.46 100.48 179.8 112.92"/>
              <line class="cls-4" x1="155.24" y1="114.86" x2="145.85" y2="124.08"/>
              <polyline class="cls-4" points="148.69 112.66 139.73 121.46 139.73 131.44"/>
              <polyline class="cls-4" points="144.9 107.76 135.6 116.89 135.6 124.67"/>
              <polyline class="cls-4" points="113.71 111.48 120.78 104.54 138.18 104.54"/>
              <polyline class="cls-4" points="112.85 104.37 105.79 111.31 89.93 111.31 84.51 116.64"/>
              <polyline class="cls-4" points="89.93 120.1 119.23 120.1 138.27 138.8 138.27 166.28 151.67 178.76 151.28 203.5"/>
              <path class="cls-4" d="m97.86,115.37h22.23l21.54,21.15v27.74"/>
              <polyline class="cls-4" points="146.45 128.73 146.45 161.72 159.55 174.57 177.99 174.57"/>
              <polyline class="cls-4" points="196.43 154.44 182.73 167.89 164.03 167.89 150.46 154.57"/>
              <polyline class="cls-4" points="162.75 151.91 169.2 151.91 179.28 161.8"/>
              <polyline class="cls-4" points="154.21 147.17 178.68 147.17 187.81 156.14"/>
              <polyline class="cls-4" points="150.42 142.43 170.58 142.43 177.04 136.09 187.39 146.25"/>
              <line class="cls-4" x1="153.69" y1="138.04" x2="164.55" y2="127.38"/>
              <line class="cls-4" x1="161.58" y1="138.04" x2="172.44" y2="127.38"/>
              <polyline class="cls-4" points="155.76 122.81 172.3 122.81 196.51 146.58"/>
              <line class="cls-4" x1="178.85" y1="121.12" x2="197.03" y2="138.97"/>
              <polyline class="cls-4" points="185.53 120.65 193.5 120.61 201.51 128.48"/>
              <polyline class="cls-4" points="198.67 104.03 185.14 117.31 164.72 117.31"/>
              <line class="cls-4" x1="126.64" y1="115.54" x2="137.75" y2="105.13"/>
              <polyline class="cls-4" points="88.21 108.43 91.83 104.88 105.44 104.88"/>
              <polyline class="cls-4" points="73.74 130.76 94.93 130.76 101.48 124.33"/>
              <polyline class="cls-4" points="102.86 130.93 109.06 124.84 117.33 124.84 133.96 141.16 133.96 167.3"/>
              <line class="cls-4" x1="190.44" y1="126.36" x2="196.12" y2="131.95"/>
              <polyline class="cls-4" points="163.94 178 159.03 182.82 159.03 198.68"/>
            </g>
            <line class="cls-4" x1="161.67" y1="157.88" x2="167.6" y2="163.69"/>
          </g>
          <line class="cls-2" x1="34.88" y1="193.18" x2="44.56" y2="193.18"/>
          <path class="cls-2" d="m110.61,252.12c7.89-2.28,15.39-5.95,22.04-10.81"/>
          <path class="cls-1" d="m62.31,163.67c-10.93,0-19.8-9.22-19.8-9.22,0,0,8.86-9.22,19.8-9.22s19.8,9.22,19.8,9.22c0,0-8.86,9.22-19.8,9.22Z"/>
          <g>
            <g>
              <path class="cls-12" d="m127.78,197.32c-.67-1.16-.29-2.64.86-3.32,1.15-.68,2.63-.29,3.3.86.06.1.09.2.14.3.75-.63,1.43-1.32,2.03-2.06-.11-.04-.22-.08-.33-.15-1.16-.66-1.56-2.14-.9-3.31.66-1.17,2.13-1.58,3.29-.91.11.06.2.13.29.21.34-.92.58-1.86.73-2.83-.12.02-.25.04-.38.04-1.33,0-2.42-1.07-2.43-2.41s1.06-2.44,2.4-2.45c.13,0,.26.02.38.04-.16-.96-.42-1.9-.78-2.83-.1.09-.21.17-.32.24-1.15.68-2.63.29-3.3-.86s-.29-2.64.86-3.32c.11-.07.23-.11.35-.16-.63-.76-1.33-1.45-2.08-2.05-.04.12-.09.25-.16.36-.66,1.17-2.13,1.58-3.29.91-1.16-.66-1.56-2.14-.9-3.31.06-.11.14-.21.21-.3-.91-.33-1.85-.57-2.81-.71.02.12.04.24.04.37,0,1.34-1.06,2.44-2.4,2.45-1.33,0-2.42-1.07-2.43-2.41,0-.12.02-.23.03-.34-.94.17-1.87.43-2.77.8.07.09.14.18.2.28.67,1.16.29,2.64-.86,3.32-1.15.68-2.63.29-3.3-.86-.05-.09-.09-.18-.13-.28-.74.63-1.4,1.32-1.99,2.06.09.04.19.07.28.12,1.16.66,1.56,2.14.9,3.31-.66,1.17-2.13,1.58-3.29.91-.08-.05-.15-.1-.22-.16-.32.9-.55,1.82-.7,2.76.09-.01.18-.03.27-.03,1.33,0,2.42,1.07,2.43,2.41s-1.06,2.44-2.4,2.45c-.09,0-.17-.01-.25-.02.16.92.42,1.84.76,2.74.07-.05.13-.11.21-.16,1.15-.68,2.63-.29,3.3.86s.29,2.64-.86,3.32c-.07.04-.15.07-.22.1.61.74,1.29,1.4,2.01,1.99.04-.08.06-.17.11-.25.66-1.17,2.13-1.58,3.29-.91,1.16.66,1.56,2.14.9,3.31-.04.08-.1.14-.15.22.89.33,1.81.57,2.74.72-.01-.1-.03-.19-.03-.29,0-1.34,1.06-2.44,2.4-2.45,1.33-.01,2.42,1.07,2.43,2.41,0,.1-.02.2-.03.29.93-.16,1.85-.42,2.76-.76-.06-.08-.13-.17-.19-.26Zm-1.11-5.91c-4.15,2.18-9.29.56-11.46-3.61s-.55-9.35,3.6-11.54c4.15-2.18,9.29-.56,11.46,3.61,2.17,4.18.55,9.35-3.6,11.54Z"/>
              <path class="cls-4" d="m125.74,189.63c-3.18,1.67-7.1.44-8.76-2.76s-.43-7.14,2.75-8.82c3.18-1.67,7.1-.44,8.76,2.76s.43,7.14-2.75,8.82Z"/>
            </g>
            <g>
              <path class="cls-12" d="m98.09,140.29c-.06-.11-.1-.22-.15-.34-.9.77-1.71,1.61-2.43,2.52.12.05.23.09.34.15,1.41.81,1.91,2.62,1.11,4.04s-2.6,1.93-4.02,1.12c-.1-.06-.18-.13-.27-.19-.39,1.1-.68,2.23-.85,3.38.11-.01.22-.04.34-.04,1.63-.01,2.96,1.3,2.97,2.94s-1.3,2.98-2.93,2.99c-.11,0-.21-.02-.31-.03.2,1.13.51,2.25.93,3.34.09-.06.16-.13.26-.19,1.4-.83,3.21-.36,4.03,1.05s.35,3.23-1.05,4.06c-.09.05-.18.09-.27.13.75.9,1.57,1.71,2.46,2.43.04-.1.08-.2.13-.3.8-1.43,2.6-1.93,4.02-1.12,1.41.81,1.91,2.62,1.11,4.04-.05.1-.12.18-.18.26,1.09.4,2.21.69,3.35.88-.01-.12-.04-.23-.04-.35-.01-1.64,1.3-2.98,2.93-2.99,1.63-.01,2.96,1.3,2.97,2.94,0,.12-.02.24-.03.36,1.14-.2,2.26-.51,3.37-.93-.08-.1-.16-.2-.23-.32-.82-1.41-.35-3.23,1.05-4.06,1.4-.83,3.21-.36,4.03,1.05.07.12.12.24.17.36.92-.77,1.75-1.61,2.48-2.52-.13-.05-.27-.1-.4-.18-1.41-.81-1.91-2.62-1.11-4.04s2.6-1.93,4.02-1.12c.13.07.24.16.36.26.41-1.12.71-2.28.89-3.46-.15.03-.31.05-.47.05-1.63.01-2.96-1.3-2.97-2.94s1.3-2.98,2.93-2.99c.16,0,.31.02.46.04-.2-1.17-.52-2.32-.95-3.45-.12.1-.25.21-.39.29-1.4.83-3.21.36-4.03-1.05s-.35-3.23,1.05-4.06c.14-.08.28-.14.42-.2-.77-.93-1.63-1.77-2.54-2.51-.05.15-.11.3-.2.45-.8,1.43-2.6,1.93-4.02,1.12s-1.91-2.62-1.11-4.04c.08-.13.17-.25.26-.37-1.11-.4-2.27-.7-3.44-.87.02.15.05.3.05.46.01,1.64-1.3,2.98-2.93,2.99-1.63.01-2.96-1.3-2.97-2.94,0-.14.02-.28.04-.42-1.14.21-2.28.53-3.39.97.09.11.18.22.25.34.82,1.41.35,3.23-1.05,4.06-1.4.83-3.21.36-4.03-1.05Zm18.87,6.21c3.9,4.04,3.71,10.54-.42,14.49-4.13,3.95-10.66,3.88-14.56-.16s-3.71-10.54.42-14.49c4.13-3.95,10.66-3.88,14.56.16Z"/>
              <path class="cls-4" d="m113.08,160.69c-3.82,2.01-8.53.52-10.52-3.32-1.99-3.84-.51-8.58,3.31-10.59,3.82-2.01,8.53-.52,10.52,3.32,1.99,3.84.51,8.58-3.31,10.59Z"/>
            </g>
          </g>
        </g>
      </g>
    </g>
    <g>
      <g>
        <g>
          <polyline class="cls-8" points="263.46 342.21 256.44 348.69 263.46 355.16"/>
          <polyline class="cls-8" points="268.2 342.21 261.18 348.69 268.2 355.16"/>
        </g>
        <polyline class="cls-8" points="302.14 342.21 309.14 348.69 302.14 355.16"/>
        <path class="cls-8" d="m273.79,348.66c0,1.47-1.19,2.65-2.65,2.65s-2.65-1.19-2.65-2.65,1.19-2.65,2.65-2.65,2.65,1.19,2.65,2.65Z"/>
        <line class="cls-8" x1="278.41" y1="348.66" x2="288.81" y2="348.66"/>
        <line class="cls-8" x1="293.23" y1="348.66" x2="299.43" y2="348.66"/>
      </g>
      <g>
        <path class="cls-8" d="m225.85,310.13c0,1.44,1.18,2.6,2.64,2.6s2.64-1.17,2.64-2.6-1.18-2.6-2.64-2.6c-1.46,0-2.64,1.16-2.64,2.6Z"/>
        <line class="cls-8" x1="259.46" y1="303.43" x2="268.25" y2="314.27"/>
        <line class="cls-8" x1="254.19" y1="303.43" x2="262.98" y2="314.27"/>
        <line class="cls-8" x1="251.88" y1="310.36" x2="235.58" y2="310.36"/>
      </g>
      <g>
        <line class="cls-7" x1="160.06" y1="270.02" x2="152.68" y2="277.4"/>
        <line class="cls-7" x1="165.55" y1="270.02" x2="158.17" y2="277.4"/>
        <line class="cls-7" x1="177.66" y1="270.02" x2="170.28" y2="277.4"/>
      </g>
      <g>
        <path class="cls-7" d="m167.62,354.61c0,1.41-1.15,2.56-2.56,2.56s-2.56-1.15-2.56-2.56,1.15-2.56,2.56-2.56,2.56,1.15,2.56,2.56Z"/>
        <line class="cls-7" x1="126.44" y1="348.01" x2="117.91" y2="358.68"/>
        <line class="cls-7" x1="134.98" y1="348.01" x2="126.44" y2="358.68"/>
        <line class="cls-7" x1="140.1" y1="348.01" x2="131.56" y2="358.68"/>
        <line class="cls-7" x1="142.34" y1="354.83" x2="158.17" y2="354.83"/>
      </g>
      <g>
        <g>
          <polyline class="cls-7" points="117.56 218.91 124.49 225.3 117.56 231.69"/>
          <polyline class="cls-7" points="112.89 218.91 119.81 225.3 112.89 231.69"/>
        </g>
        <path class="cls-7" d="m103.75,224.74c0,1.46-1.19,2.65-2.65,2.65s-2.65-1.19-2.65-2.65,1.19-2.65,2.65-2.65,2.65,1.19,2.65,2.65Z"/>
        <line class="cls-7" x1="107.72" y1="225.1" x2="115.51" y2="225.1"/>
      </g>
      <g>
        <line class="cls-8" x1="243.7" y1="214.39" x2="236.32" y2="221.77"/>
        <line class="cls-8" x1="249.19" y1="214.39" x2="241.81" y2="221.77"/>
        <line class="cls-8" x1="261.3" y1="214.39" x2="253.92" y2="221.77"/>
      </g>
    </g>
    <g>
      <g>
        <path class="cls-13" d="m66.21,22.82c-2.14.7-3.67,2.41-4.28,4.45-.19.62-.72,1.07-1.35,1.1l-4.65-14.15-33.66,11.06,4.65,14.15c-.53.35-1.22.31-1.74-.08-1.71-1.28-3.96-1.75-6.09-1.05-3.66,1.2-5.56,5.34-4.1,9.12,1.32,3.43,5.09,5.29,8.45,4.2,2.14-.7,3.68-2.41,4.3-4.46.19-.62.72-1.07,1.35-1.09l4.65,14.15,13.76-4.52c-.13-.51-.51-.93-1.04-1.1-2.04-.63-3.74-2.17-4.45-4.32-1.21-3.68.98-7.68,4.86-8.73,3.52-.96,7.24.99,8.36,4.37.71,2.15.26,4.42-1.01,6.14-.33.44-.39,1.01-.19,1.5l13.37-4.39-4.65-14.15c.53-.35,1.22-.31,1.74.08,1.72,1.29,3.97,1.75,6.11,1.04,3.36-1.11,5.29-4.85,4.32-8.39-1.06-3.91-5.05-6.12-8.71-4.92Z"/>
        <path class="cls-2" d="m69.04,22.82c-2.14.7-3.67,2.41-4.28,4.45-.19.62-.72,1.07-1.35,1.1l-4.65-14.15-33.66,11.06,4.65,14.15c-.53.35-1.22.31-1.74-.08-1.71-1.28-3.96-1.75-6.09-1.05-3.66,1.2-5.56,5.34-4.1,9.12,1.32,3.43,5.09,5.29,8.45,4.2,2.14-.7,3.68-2.41,4.3-4.46.19-.62.72-1.07,1.35-1.09l4.65,14.15,13.76-4.52c-.13-.51-.51-.93-1.04-1.1-2.04-.63-3.74-2.17-4.45-4.32-1.21-3.68.98-7.68,4.86-8.73,3.52-.96,7.24.99,8.36,4.37.71,2.15.26,4.42-1.01,6.14-.33.44-.39,1.01-.19,1.5l13.37-4.39-4.65-14.15c.53-.35,1.22-.31,1.74.08,1.72,1.29,3.97,1.75,6.11,1.04,3.36-1.11,5.29-4.85,4.32-8.39-1.07-3.91-5.05-6.12-8.71-4.92Z"/>
      </g>
      <g>
        <path class="cls-13" d="m51.32,349.1c-1.9,1.27-4.38,1.58-6.62.55-3.15-1.44-4.73-5.2-3.6-8.55,1.28-3.79,5.38-5.76,9.01-4.37,2.13.82,3.61,2.6,4.15,4.69.16.63.68,1.1,1.32,1.17l5.32-13.92-13.26-5.07c.07-.65.54-1.19,1.17-1.36,2.06-.58,3.84-2.1,4.67-4.28,1.43-3.73-.49-7.9-4.26-9.12-3.43-1.1-7.23.77-8.55,4.2-.84,2.18-.53,4.52.62,6.32.35.55.35,1.26-.04,1.79l-13.63-5.21-5.32,13.92c.52.38,1.22.38,1.77.01,1.79-1.2,4.1-1.54,6.24-.72,3.36,1.29,5.15,5.13,4.02,8.63-1.25,3.85-5.38,5.85-9.04,4.45-2.13-.82-3.61-2.6-4.15-4.69-.16-.63-.68-1.1-1.32-1.17l-5.32,13.92,33.28,12.72,5.32-13.92c-.52-.38-1.22-.38-1.77-.01Z"/>
        <path class="cls-2" d="m54.15,349.1c-1.9,1.27-4.38,1.58-6.62.55-3.15-1.44-4.73-5.2-3.6-8.55,1.28-3.79,5.38-5.76,9.01-4.37,2.13.82,3.61,2.6,4.15,4.69.16.63.68,1.1,1.32,1.17l5.32-13.92-13.26-5.07c.07-.65.54-1.19,1.17-1.36,2.06-.58,3.84-2.1,4.67-4.28,1.43-3.73-.49-7.9-4.26-9.12-3.43-1.1-7.23.77-8.55,4.2-.84,2.18-.53,4.52.62,6.32.35.55.35,1.26-.04,1.79l-13.63-5.21-5.32,13.92c.52.38,1.22.38,1.76.01,1.79-1.2,4.1-1.54,6.24-.72,3.36,1.29,5.15,5.13,4.02,8.63-1.25,3.85-5.38,5.85-9.04,4.45-2.13-.82-3.61-2.6-4.15-4.69-.16-.63-.68-1.1-1.32-1.17l-5.32,13.92,33.28,12.72,5.32-13.92c-.52-.38-1.22-.38-1.76-.01Z"/>
      </g>
      <g>
        <path class="cls-13" d="m357.91,50.81c-.49-2.14.03-4.47,1.63-6.21,2.45-2.67,6.73-2.94,9.54-.6,3.03,2.52,3.38,7,.82,9.91-1.52,1.73-3.71,2.5-5.85,2.29-.62-.06-1.2.24-1.5.76l11.12,9.79,9.7-11.02c.59.29.92.92.86,1.57-.19,2.13.6,4.33,2.34,5.86,2.94,2.58,7.42,2.27,9.92-.74,2.42-2.91,1.95-7.34-.93-9.75-1.63-1.36-3.7-1.86-5.65-1.52-.62.11-1.52-.17-1.99-.59l9.7-11.02-11.11-9.78c.29-.58.91-.91,1.56-.84,2.14.21,4.33-.57,5.85-2.29,2.56-2.91,2.21-7.39-.82-9.91-2.81-2.33-7.08-2.06-9.54.6-1.6,1.74-2.12,4.07-1.63,6.21.15.64-.1,1.29-.64,1.65l-11.11-9.78-23.95,27.22,11.12,9.79c.48-.37.7-.99.57-1.59Z"/>
        <path class="cls-2" d="m360.74,50.81c-.49-2.14.03-4.47,1.63-6.21,2.45-2.67,6.73-2.94,9.54-.6,3.03,2.52,3.38,7,.82,9.91-1.52,1.73-3.71,2.5-5.85,2.29-.62-.06-1.2.24-1.5.76l11.12,9.79,9.7-11.02c.59.29.92.92.86,1.57-.19,2.13.6,4.33,2.34,5.86,2.93,2.58,7.42,2.27,9.92-.74,2.42-2.91,1.95-7.34-.93-9.75-1.63-1.36-3.7-1.86-5.65-1.52-.62.11-1.52-.17-1.99-.59l9.7-11.02-11.11-9.78c.29-.58.91-.91,1.56-.84,2.14.21,4.33-.57,5.85-2.29,2.56-2.91,2.21-7.39-.82-9.91-2.81-2.33-7.08-2.06-9.54.6-1.6,1.74-2.12,4.07-1.63,6.21.15.64-.1,1.29-.64,1.65l-11.11-9.78-23.95,27.22,11.12,9.79c.48-.37.7-.99.57-1.59Z"/>
      </g>
      <g>
        <path class="cls-13" d="m349.36,340.74c2.19-.65,4.45-.13,6.14,1.2.52.4,1.21.46,1.76.12l-4.24-14.28,13.99-4.16h0c-.18-.61-.79-1.33-1.37-1.57-3.25-1.36-5.46-5.2-3.73-9.94,4.17-5.83,11.29-3.75,12.86,1.53.66,2.24.18,4.53-1.11,6.24-.39.52-.44,1.23-.1,1.79l13.99-4.16,10.48,35.25-34.53,10.26-4.24-14.28c-.65.02-1.2.44-1.41,1.06-.71,2.08-2.38,3.78-4.64,4.4-3.47.95-7.23-1.12-8.37-4.61-1.23-3.76.83-7.76,4.52-8.86Z"/>
        <path class="cls-2" d="m352.19,340.74c2.19-.65,4.45-.13,6.14,1.2.52.4,1.21.46,1.76.12l-4.24-14.28,13.99-4.16h0c-.18-.61-.79-1.33-1.37-1.57-3.25-1.36-5.46-5.2-3.73-9.94,4.17-5.83,11.29-3.75,12.86,1.53.66,2.24.18,4.53-1.11,6.24-.39.52-.44,1.23-.1,1.79l13.99-4.16,10.48,35.25-34.53,10.26-4.24-14.28c-.65.02-1.2.44-1.41,1.06-.71,2.08-2.38,3.78-4.64,4.4-3.47.95-7.23-1.12-8.37-4.61-1.23-3.76.83-7.76,4.52-8.86Z"/>
      </g>
    </g>
    <g>
      <rect class="cls-13" x="163.4" y="18.13" width="17.35" height="4.9"/>
      <rect class="cls-13" x="185.55" y="18.13" width="20.43" height="4.9"/>
      <rect class="cls-13" x="209.48" y="18.13" width="12.06" height="4.9"/>
      <rect class="cls-13" x="239.51" y="18.13" width="13.82" height="4.9"/>
      <rect class="cls-13" x="165.81" y="26.83" width="32.71" height="4.9"/>
      <rect class="cls-13" x="203.12" y="26.83" width="25.23" height="4.9"/>
      <rect class="cls-13" x="244.36" y="26.83" width="8.77" height="4.9"/>
      <path class="cls-8" d="m254.3,15.52h0c1.93,0,3.5,1.61,3.5,3.59v2.55c0,.95.37,1.86,1.02,2.54l1.05,1.08-.73.74c-.66.67-1.02,1.59-1.02,2.54v2.17c0,1.98-1.57,3.59-3.5,3.59h-.58"/>
      <path class="cls-8" d="m161.05,15.52h0c-1.93,0-3.5,1.61-3.5,3.59v2.55c0,.95-.37,1.86-1.02,2.54l-1.05,1.08.73.74c.66.67,1.02,1.59,1.02,2.54v2.17c0,1.98,1.57,3.59,3.5,3.59h.58"/>
      <line class="cls-8" x1="229.75" y1="17.91" x2="237.65" y2="31.95"/>
    </g>
  </g>
</svg>